<svg width="151" height="311" viewBox="0 0 151 311" fill="none" xmlns="http://www.w3.org/2000/svg">
<path d="M34 0C37.866 0 41 3.13401 41 7V129.866L63.8252 153.001L66.9951 156.803L65.0439 307.599C63.3951 309.67 60.8536 311 58 311H9C4.02944 311 0 306.971 0 302V96C4.12337e-06 91.0294 4.02944 87 9 87H27V7C27 3.13401 30.134 0 34 0ZM117 0C120.866 0 124 3.13401 124 7V87H142C146.971 87 151 91.0294 151 96V302C151 306.971 146.971 311 142 311H93C90.1462 311 87.6039 309.671 85.9551 307.599L84.0039 156.803L86.6504 153.628L110 129.964V7C110 3.13401 113.134 0 117 0ZM62 0C65.866 0 69 3.13401 69 7V96C69 99.866 65.866 103 62 103C58.134 103 55 99.866 55 96V7C55 3.13401 58.134 0 62 0ZM89 0C92.866 0 96 3.13401 96 7V96C96 99.866 92.866 103 89 103C85.134 103 82 99.866 82 96V7C82 3.13401 85.134 0 89 0Z" fill="#542D11"/>
</svg>
